PathFileType	4	(X/Y/Z)	36_1_rein_29_p1_0-384.trc
DataRate	CameraRate	NumFrames	NumMarkers	Units	OrigDataRate	OrigDataStartFrame	OrigNumFrames
58.0	58.0	6	27	m	58.0	288	385
Frame#	Time	RHip			RKnee			RAnkle			RBigToe			RSmallToe			RHeel			LHip			LKnee			LAnkle			LBigToe			LSmallToe			LHeel			Neck			Head			Nose			RShoulder			RElbow			RWrist			RThumb			RIndex			RPinky			LShoulder			LElbow			LWrist			LThumb			LIndex			LPinky			
		X1	Y1	Z1	X2	Y2	Z2	X3	Y3	Z3	X4	Y4	Z4	X5	Y5	Z5	X6	Y6	Z6	X7	Y7	Z7	X8	Y8	Z8	X9	Y9	Z9	X10	Y10	Z10	X11	Y11	Z11	X12	Y12	Z12	X13	Y13	Z13	X14	Y14	Z14	X15	Y15	Z15	X16	Y16	Z16	X17	Y17	Z17	X18	Y18	Z18	X19	Y19	Z19	X20	Y20	Z20	X21	Y21	Z21	X22	Y22	Z22	X23	Y23	Z23	X24	Y24	Z24	X25	Y25	Z25	X26	Y26	Z26	X27	Y27	Z27	
288	4.9655172413793105	0.32825738231120566	0.5597322902780545	-0.14891111675435728	0.35668226271866116	0.6322193403172719	0.292498723168926	0.36997435678509955	0.7863759505611857	0.738053477182704	0.3293655291473985	0.5158112824035169	0.7478915097317947	0.4031520251580686	0.5603492286064888	0.7493089558976288	0.34965049205647064	0.8464228487748874	0.7844190264793643	0.11940787215961231	0.5786168786901091	-0.13281496576906007	0.14559965233326197	0.651412788322822	0.3103292184092034	0.17430951195051078	0.7274325829482424	0.7139881319840865	0.18467566019915102	0.5193940422682081	0.7454755497364007	0.1338889282559461	0.5618259645323673	0.7581336070825193	0.19313979464514805	0.7952881717990976	0.7856247422860698	0.18388057933832963	0.4544041479996024	-0.7408711566072357	0.2135636577796792	0.2549938556858851	-0.9842810663616289	0.19799069729729765	0.29638473802863147	-0.8120171512864378	0.3623435732046631	0.4874983031953752	-0.6904272497975453	0.4868864441160163	0.5766294855300065	-0.45132790258343525	0.4144559958219521	0.29741494284754333	-0.38580517704749784	0.31896323510071817	0.15754135298942934	-0.4003175265185972	0.32395537331086594	0.15021670370065512	-0.38129421645429706	0.3545858365808114	0.19233101277322834	-0.3424462554421446	0.012490022627397911	0.4799002609919385	-0.6644572353944466	-0.06274377425664059	0.5701318522336456	-0.40169466844996615	-0.015697743188218503	0.391730878745646	-0.18061596936740973	0.0455439003386596	0.3121609730416832	-0.12317561505617151	0.028675138372101252	0.29857553336744763	-0.07874684397571405	-0.010574839929542435	0.38555915420160725	-0.05221970337979003
289	4.982758620689655	0.3283305066358837	0.5593236988326903	-0.15295600131016873	0.3591578631653985	0.6138581035826864	0.28089219636471846	0.3700076377802415	0.7863845543495324	0.7379804825079217	0.3293131654615398	0.515304253825053	0.7477470128203906	0.40307439265259276	0.559420916904236	0.7490133814354222	0.3496566105814096	0.8464703835559391	0.7845271455105292	0.11878521173531865	0.5763228553771379	-0.14090907953128892	0.14589625612870938	0.6508046257102695	0.3061936611810586	0.17423247157753619	0.7269090451200007	0.7137097755015819	0.18469192154149042	0.5192629101520987	0.745433906342636	0.13387061377747272	0.5616394476540062	0.7580859774671118	0.1920388940676031	0.7935855675060355	0.7815091269119488	0.18465401464437928	0.4555131146713686	-0.7341500726010821	0.21334584251847055	0.25547774777836607	-0.9818880112987538	0.19773241743646314	0.29630556030367655	-0.8117004052071372	0.3624006214929608	0.4879558567566554	-0.6902814042342825	0.4912335063787276	0.5776910156061811	-0.45184395161590885	0.4189702755422604	0.2975871093832238	-0.3824178882440023	0.3204639652530987	0.1811244720259909	-0.38285715991927005	0.3256138320590341	0.15210236902102528	-0.37431819998174454	0.3563687087165439	0.19178883667866908	-0.32945800162585676	0.012534265570184458	0.47990837732464886	-0.6643860161559817	-0.06293119635081182	0.5705712689261992	-0.40147978918379773	-0.015152347816951352	0.3912693695030037	-0.1768229904909044	0.049483433008483776	0.3145296569646143	-0.12333608051215626	0.02958606417763117	0.3003074997862438	-0.07448383261899415	-0.01031961614234042	0.385622231082066	-0.052458064139696704
290	5.0	0.33241920501229283	0.5598269265706686	-0.1498003308196577	0.3602254669968888	0.6151146078173967	0.2851316552542146	0.3700001418530031	0.7863599972409572	0.7379525067336282	0.32916958341074976	0.5152526187836398	0.7478602149643138	0.40291083129356015	0.5595815602791533	0.749225421468144	0.34962018886418517	0.8464743680719627	0.7843218822092988	0.11968007892931194	0.5777494192014964	-0.13632997422723028	0.14532990954168415	0.6517256918448892	0.3106191186724659	0.17357301152676394	0.7273247061225165	0.7184977446785766	0.19170432236341878	0.5188739701415362	0.7443529148227775	0.13336905293527754	0.5619792903133103	0.761655817146754	0.19002740483285216	0.7825914590564071	0.7804499679542207	0.18470860847633144	0.45543097201971205	-0.7340842039336191	0.21317451215459893	0.25489824465753896	-0.9853466568007462	0.20074578653331845	0.30676159055444363	-0.8126136295477087	0.3664045036874518	0.48864015428636026	-0.6906394175874137	0.4960244554950613	0.5777971452713047	-0.4478264830272569	0.42301986852193324	0.2852951987177867	-0.37526141203409497	0.3288289122303765	0.17427259855450122	-0.37155504769403325	0.3275325701695268	0.15321099478310146	-0.3615300327971356	0.3575082382380652	0.1902798407331157	-0.3086290842709057	0.012516359199947126	0.4796107172852008	-0.6642835208283261	-0.06299515715820811	0.5708031676598878	-0.4015015001493551	-0.015410766621117402	0.39142210188613896	-0.1809389148824134	0.050914431325938994	0.3047948123392538	-0.1296693267760931	0.03658779006055931	0.2894711180079239	-0.08506855164374	-0.006184766270925323	0.3728791794244277	-0.059536504930044455
291	5.017241379310345	0.32432453780204484	0.5742035096822801	-0.14595151376382567	0.36114749418408437	0.612979074440523	0.2849298854306183	0.37000324630951387	0.7863475476490103	0.7379371668582801	0.3292746154672253	0.5152219093819825	0.7477431661240399	0.4028540111115959	0.5591651245421871	0.7490888961568086	0.3496023406097177	0.8464741009807344	0.7842553569587343	0.11492044975813036	0.5926410698318976	-0.13316572856868333	0.14565588130339943	0.651248923246434	0.306459779938326	0.17347073179959266	0.72693916744703	0.7182569889913888	0.19170134594199822	0.5189065546294175	0.7443521076233232	0.1334570933217876	0.5622303515345088	0.7618009432214613	0.19233176606463245	0.7941433921831971	0.7816046169488045	0.1851583234199244	0.4563439815241212	-0.7336846401947402	0.21311780945216718	0.2559052978718622	-0.9819321813438321	0.2071306169018385	0.30605345326638084	-0.8108021653699319	0.3664360092612098	0.4887387985464696	-0.6905727960859452	0.5039053843926856	0.5635074471510351	-0.44914424486395405	0.4245714810584535	0.2960984014657507	-0.3589916906107118	0.3343769762809144	0.17966325838985062	-0.37171155585116133	0.32714229028558045	0.15241368348941903	-0.3601427376368204	0.35081419467505537	0.16958600194804127	-0.29665926057564174	0.009996778957766298	0.46733173500692665	-0.6639149714188151	-0.06365249630245334	0.5696221384441832	-0.4055362180978458	-0.015398860679995205	0.39049753951722166	-0.19598202116143823	0.052584788651922086	0.31561430528383677	-0.14267124727862995	0.037150312172221304	0.2892962841224582	-0.09201681650783239	-0.004543081932457811	0.38301857700305186	-0.06925071888728761
292	5.0344827586206895	0.3252514610406358	0.5757000837984501	-0.14096243823819238	0.36125316409775193	0.6129796725822088	0.28487451149441306	0.369978922299333	0.7862825694106268	0.7378384669331925	0.32892583241869416	0.5147748886897301	0.7478743213461495	0.4019997234858583	0.5597365199475578	0.7536046342289651	0.34957509355018473	0.8464074082782166	0.7844959812791856	0.12018437540884742	0.5784447338259737	-0.1317092879175249	0.13775089573467308	0.6363375393763563	0.3067269068068912	0.1721737311416231	0.7246675531167512	0.7127872445887546	0.19160084132340552	0.5188388737169375	0.7443337383775971	0.13350974312763936	0.5619526294772512	0.7616306370387674	0.19221924290942297	0.7939579602017169	0.7814940923641227	0.18530024874740805	0.45639299498793623	-0.7306376070784129	0.21349246679737965	0.25538002675969634	-0.9814362323295895	0.20426167111194793	0.3177799117589096	-0.8072979153891041	0.36668297724143306	0.4885131650179907	-0.6874169571371904	0.5043821324069311	0.5617002352100029	-0.4484072564667979	0.4323433824276883	0.2961846085976744	-0.3494256306727018	0.3348054331590741	0.1843749532477999	-0.3496968634281391	0.33001401134261316	0.1500844946752064	-0.3325524278325518	0.36959176027542495	0.19568439342329982	-0.27340519553568704	0.010290941339794996	0.46736634820536266	-0.6603797208408934	-0.06368607980933956	0.5697222984443053	-0.40586666798716686	-0.016470384133856247	0.3900581115538999	-0.20764293640769763	0.045207044246090004	0.30068069992780844	-0.15261202551284347	0.030418581959302905	0.2852048684668435	-0.12620174864383737	-0.0009929913457670401	0.38451571747220853	-0.07712263676692382
293	5.051724137931035	0.32520148502473206	0.5759566967127611	-0.1407946966655918	0.36059336051376667	0.6140840445232444	0.28079610305637814	0.36996887943588186	0.7863703478784921	0.7377794066695831	0.32890349920040873	0.5147638507847385	0.7478360154162577	0.40208950059636567	0.5595859781096252	0.7533771726032579	0.34959641477425707	0.8463905060219867	0.7844505697045685	0.11997695346898091	0.5776261831440483	-0.13181663506393135	0.1412255061581402	0.6493422035790241	0.3063570218000957	0.17190507089005508	0.7248537984801567	0.712854931281144	0.1917350174858661	0.5187353030566018	0.7443340591916698	0.1332185788052718	0.5625253114502454	0.7620566998816709	0.1909776065495963	0.7918754361692453	0.7768531537343638	0.18527835848910765	0.4564782316564974	-0.7305922246541313	0.21361448398413896	0.25525050040183145	-0.9814227790688759	0.2077900539397019	0.3056936207690317	-0.8072379858876978	0.3700796590298867	0.4752327458435406	-0.6877569507821228	0.5162298863262875	0.5582588242313701	-0.4458334232023535	0.4348746858420264	0.2973369982809999	-0.3292056091487776	0.33526173550821936	0.1819635072453946	-0.31916669344870535	0.3320354346550438	0.14968312624690033	-0.3050118334470211	0.37833706652351234	0.17818683920910638	-0.25922977221180526	0.010349612149989954	0.4672095072778853	-0.6603125290785172	-0.06895160754446861	0.5825835841048311	-0.40807879801874836	-0.013734734845015441	0.38944343878418836	-0.21904485641303706	0.05265707847833621	0.30318015284289385	-0.15735835299253423	0.03226624551275916	0.2837463579184672	-0.14284978749632912	-0.00694003575933802	0.38053873017163287	-0.10491561034117752
